<mxfile host="Electron" modified="2023-06-13T08:36:14.379Z" agent="Mozilla/5.0 (X11; Linux x86_64) AppleWebKit/537.36 (KHTML, like Gecko) draw.io/21.2.8 Chrome/112.0.5615.165 Electron/24.2.0 Safari/537.36" etag="v9Vu1aEvlGSuJQ7txEnr" version="21.2.8" type="device">
  <diagram name="PÃ¡gina-1" id="Gu47XlzuzmPSx0FAkUNI">
    <mxGraphModel dx="561" dy="338" grid="1" gridSize="10" guides="1" tooltips="1" connect="1" arrows="1" fold="1" page="1" pageScale="1" pageWidth="827" pageHeight="1169" math="0" shadow="0">
      <root>
        <mxCell id="0" />
        <mxCell id="1" parent="0" />
        <mxCell id="ikaivWX_-moz5KF2dSkO-1" value="" style="shape=cylinder3;whiteSpace=wrap;html=1;boundedLbl=1;backgroundOutline=1;size=15;" vertex="1" parent="1">
          <mxGeometry x="110" y="390" width="60" height="80" as="geometry" />
        </mxCell>
        <mxCell id="ikaivWX_-moz5KF2dSkO-11" value="" style="endArrow=none;html=1;rounded=0;" edge="1" parent="1">
          <mxGeometry width="50" height="50" relative="1" as="geometry">
            <mxPoint x="139.68" y="410" as="sourcePoint" />
            <mxPoint x="139.68" y="300" as="targetPoint" />
          </mxGeometry>
        </mxCell>
        <mxCell id="ikaivWX_-moz5KF2dSkO-2" value="" style="shape=cylinder3;whiteSpace=wrap;html=1;boundedLbl=1;backgroundOutline=1;size=15;rotation=-135;" vertex="1" parent="1">
          <mxGeometry x="110" y="270" width="60" height="80" as="geometry" />
        </mxCell>
        <mxCell id="ikaivWX_-moz5KF2dSkO-12" value="" style="endArrow=none;html=1;rounded=0;" edge="1" parent="1">
          <mxGeometry width="50" height="50" relative="1" as="geometry">
            <mxPoint x="150" y="300" as="sourcePoint" />
            <mxPoint x="260" y="300" as="targetPoint" />
          </mxGeometry>
        </mxCell>
        <mxCell id="ikaivWX_-moz5KF2dSkO-3" value="" style="shape=cylinder3;whiteSpace=wrap;html=1;boundedLbl=1;backgroundOutline=1;size=15;rotation=-135;" vertex="1" parent="1">
          <mxGeometry x="230" y="270" width="60" height="80" as="geometry" />
        </mxCell>
        <mxCell id="ikaivWX_-moz5KF2dSkO-13" value="" style="endArrow=none;html=1;rounded=0;" edge="1" parent="1">
          <mxGeometry width="50" height="50" relative="1" as="geometry">
            <mxPoint x="270" y="300" as="sourcePoint" />
            <mxPoint x="380" y="300" as="targetPoint" />
          </mxGeometry>
        </mxCell>
        <mxCell id="ikaivWX_-moz5KF2dSkO-4" value="" style="shape=cylinder3;whiteSpace=wrap;html=1;boundedLbl=1;backgroundOutline=1;size=15;rotation=-135;" vertex="1" parent="1">
          <mxGeometry x="354" y="270" width="60" height="80" as="geometry" />
        </mxCell>
        <mxCell id="ikaivWX_-moz5KF2dSkO-14" value="" style="endArrow=none;html=1;rounded=0;" edge="1" parent="1">
          <mxGeometry width="50" height="50" relative="1" as="geometry">
            <mxPoint x="390" y="300" as="sourcePoint" />
            <mxPoint x="480" y="300" as="targetPoint" />
          </mxGeometry>
        </mxCell>
        <mxCell id="ikaivWX_-moz5KF2dSkO-15" value="" style="endArrow=none;html=1;rounded=0;" edge="1" parent="1">
          <mxGeometry width="50" height="50" relative="1" as="geometry">
            <mxPoint x="480" y="310" as="sourcePoint" />
            <mxPoint x="480" y="290" as="targetPoint" />
          </mxGeometry>
        </mxCell>
        <mxCell id="ikaivWX_-moz5KF2dSkO-16" value="" style="endArrow=none;html=1;rounded=0;" edge="1" parent="1">
          <mxGeometry width="50" height="50" relative="1" as="geometry">
            <mxPoint x="480" y="290" as="sourcePoint" />
            <mxPoint x="500" y="290" as="targetPoint" />
          </mxGeometry>
        </mxCell>
        <mxCell id="ikaivWX_-moz5KF2dSkO-17" value="" style="endArrow=none;html=1;rounded=0;" edge="1" parent="1">
          <mxGeometry width="50" height="50" relative="1" as="geometry">
            <mxPoint x="480" y="310" as="sourcePoint" />
            <mxPoint x="500" y="310" as="targetPoint" />
          </mxGeometry>
        </mxCell>
        <mxCell id="ikaivWX_-moz5KF2dSkO-18" value="" style="endArrow=classic;html=1;rounded=0;strokeColor=#FF0000;strokeWidth=2;" edge="1" parent="1">
          <mxGeometry width="50" height="50" relative="1" as="geometry">
            <mxPoint x="180" y="430" as="sourcePoint" />
            <mxPoint x="220" y="430.32" as="targetPoint" />
          </mxGeometry>
        </mxCell>
        <mxCell id="ikaivWX_-moz5KF2dSkO-19" value="" style="endArrow=classic;html=1;rounded=0;strokeColor=#0000FF;strokeWidth=2;" edge="1" parent="1">
          <mxGeometry width="50" height="50" relative="1" as="geometry">
            <mxPoint x="180" y="430" as="sourcePoint" />
            <mxPoint x="180" y="390" as="targetPoint" />
          </mxGeometry>
        </mxCell>
        <mxCell id="ikaivWX_-moz5KF2dSkO-20" value="" style="endArrow=classic;html=1;rounded=0;strokeColor=#0000FF;strokeWidth=2;" edge="1" parent="1">
          <mxGeometry width="50" height="50" relative="1" as="geometry">
            <mxPoint x="140" y="240" as="sourcePoint" />
            <mxPoint x="110" y="270" as="targetPoint" />
          </mxGeometry>
        </mxCell>
        <mxCell id="ikaivWX_-moz5KF2dSkO-21" value="" style="endArrow=classic;html=1;rounded=0;strokeColor=#0000FF;strokeWidth=2;" edge="1" parent="1">
          <mxGeometry width="50" height="50" relative="1" as="geometry">
            <mxPoint x="260" y="240" as="sourcePoint" />
            <mxPoint x="230" y="270" as="targetPoint" />
          </mxGeometry>
        </mxCell>
        <mxCell id="ikaivWX_-moz5KF2dSkO-22" value="" style="endArrow=classic;html=1;rounded=0;strokeColor=#0000FF;strokeWidth=2;" edge="1" parent="1">
          <mxGeometry width="50" height="50" relative="1" as="geometry">
            <mxPoint x="384" y="240" as="sourcePoint" />
            <mxPoint x="354" y="270" as="targetPoint" />
          </mxGeometry>
        </mxCell>
        <mxCell id="ikaivWX_-moz5KF2dSkO-23" value="" style="endArrow=classic;html=1;rounded=0;strokeColor=#0000FF;strokeWidth=2;" edge="1" parent="1">
          <mxGeometry width="50" height="50" relative="1" as="geometry">
            <mxPoint x="500" y="240" as="sourcePoint" />
            <mxPoint x="470" y="270" as="targetPoint" />
          </mxGeometry>
        </mxCell>
        <mxCell id="ikaivWX_-moz5KF2dSkO-24" value="" style="endArrow=classic;html=1;rounded=0;strokeColor=#FF0000;strokeWidth=2;" edge="1" parent="1">
          <mxGeometry width="50" height="50" relative="1" as="geometry">
            <mxPoint x="140" y="240" as="sourcePoint" />
            <mxPoint x="180" y="240.32" as="targetPoint" />
          </mxGeometry>
        </mxCell>
        <mxCell id="ikaivWX_-moz5KF2dSkO-25" value="" style="endArrow=classic;html=1;rounded=0;strokeColor=#FF0000;strokeWidth=2;" edge="1" parent="1">
          <mxGeometry width="50" height="50" relative="1" as="geometry">
            <mxPoint x="260" y="240" as="sourcePoint" />
            <mxPoint x="300" y="240.32" as="targetPoint" />
          </mxGeometry>
        </mxCell>
        <mxCell id="ikaivWX_-moz5KF2dSkO-26" value="" style="endArrow=classic;html=1;rounded=0;strokeColor=#FF0000;strokeWidth=2;" edge="1" parent="1">
          <mxGeometry width="50" height="50" relative="1" as="geometry">
            <mxPoint x="384" y="240" as="sourcePoint" />
            <mxPoint x="424" y="240.32" as="targetPoint" />
          </mxGeometry>
        </mxCell>
        <mxCell id="ikaivWX_-moz5KF2dSkO-27" value="" style="endArrow=classic;html=1;rounded=0;strokeColor=#FF0000;strokeWidth=2;" edge="1" parent="1">
          <mxGeometry width="50" height="50" relative="1" as="geometry">
            <mxPoint x="500" y="240" as="sourcePoint" />
            <mxPoint x="540" y="240.32" as="targetPoint" />
          </mxGeometry>
        </mxCell>
      </root>
    </mxGraphModel>
  </diagram>
</mxfile>
